<?xml version="1.0" standalone="no"?>
<!DOCTYPE svg PUBLIC "-//W3C//DTD SVG 20010904//EN"
 "http://www.w3.org/TR/2001/REC-SVG-20010904/DTD/svg10.dtd">
<svg version="1.0" xmlns="http://www.w3.org/2000/svg"
 width="400.000000pt" height="400.000000pt" viewBox="0 0 400.000000 400.000000"
 preserveAspectRatio="xMidYMid meet">

<g transform="translate(0.000000,400.000000) scale(0.100000,-0.100000)"
fill="#000000" stroke="none">
<path d="M0 2000 l0 -2000 2000 0 2000 0 0 2000 0 2000 -2000 0 -2000 0 0
-2000z m2059 1324 c17 -10 74 -93 154 -222 112 -182 127 -212 127 -250 0 -37
-6 -50 -34 -78 l-34 -34 -271 0 c-292 0 -314 3 -338 52 -21 41 -24 65 -13 94
23 60 263 425 289 439 35 19 87 19 120 -1z m420 -905 c95 -20 108 -36 392
-475 454 -704 409 -628 409 -697 0 -74 -31 -134 -87 -169 l-38 -23 -1155 0
-1155 0 -38 23 c-56 35 -87 95 -87 169 l0 61 228 353 c125 195 276 428 334
519 59 91 118 176 132 189 14 13 49 32 78 42 48 17 94 18 495 19 278 0 461 -4
492 -11z"/>
</g>
</svg>
