<?xml version="1.0" encoding="utf-8"?>
<!-- Generator: Adobe Illustrator 19.2.1, SVG Export Plug-In . SVG Version: 6.00 Build 0)  -->
<svg version="1.1" id="layer" xmlns="http://www.w3.org/2000/svg" xmlns:xlink="http://www.w3.org/1999/xlink" x="0px" y="0px"
	 viewBox="0 0 652 652" style="enable-background:new 0 0 652 652;" xml:space="preserve">
<style type="text/css">
	.st0{fill:#574A3B;}
</style>
<g>
	<path class="st0" d="M120.1,325.8l61.5,61.3c15.1-16,24.3-37.6,24.3-61.3c0-23.7-9.2-45.3-24.3-61.3L120.1,325.8z"/>
	<polygon class="st0" points="115.8,330 55.1,390.5 115.8,415.5 176.5,390.5 	"/>
	<polygon class="st0" points="113.6,323.6 176.5,261 118.6,237.1 60.7,376.4 	"/>
	<path class="st0" d="M25.6,325.8c0,23.6,9.2,45.1,24.1,61.1l60.4-145.3L25.6,325.8z"/>
	<path class="st0" d="M598.6,308.6c-16.1,0-22,11.9-22,11.9V310h-12v69.9h12v-45.7c0-6.2,5.8-14.9,18.6-14.9
		c11.9,0,18.5,7.2,18.5,20.3v40.3h12v-42.4C625.6,320,615,308.6,598.6,308.6"/>
	<path class="st0" d="M533.6,286.8h-12v13.9c0,5.1-4.2,9.3-9.3,9.3h-13.5l-22.3,53.6L454.2,310h-12.3l28.5,68.5l-7.3,17.7h-15.7
		v10.4h12.2c7,0,13.2-4.2,15.9-10.6l31.4-75.5h14.8v41.7c0,10.8,6.4,17.7,16.3,17.7h16.5v-10.4h-20.9v-49h20.9V310h-20.9V286.8z"/>
	<path class="st0" d="M434.3,334c0-15.6-11.2-25.4-29.1-25.4c-16.6,0-28.2,10.3-30.4,26.6h11.7c2.5-12.1,10.9-16.5,18.4-16.5
		c10.9,0,17.5,6.1,17.5,16.4v4.7h-16.5c-23.2,0-33.2,7.4-33.2,20.1c0,13,10.3,21,26.5,21c13,0,20.5-4.8,23.9-12.4
		c0.9,6.4,4.5,11.3,13.8,11.3h7.9v-10.5h-10.4V334z M422.3,359.3c0,7.1-8.8,12.7-21.1,12.7c-9.9,0-16-3.8-16-10.9v-2.8
		c0-6.7,6.4-10.4,20.6-10.4h16.5V359.3z"/>
	<path class="st0" d="M353.6,281.7h-12v80.4c0,10.8,6.4,17.7,16.3,17.7h6.1v-10.4h-10.5V281.7z"/>
	<rect x="259.4" y="281.7" class="st0" width="12" height="98.1"/>
	<path class="st0" d="M333.3,281.7h-14.9l-37,36.9c-3.5,3.5-3.8,9-0.7,12.9l38.7,48.3h15.1l-44.2-55.2L333.3,281.7z"/>
</g>
</svg>
